<?xml version="1.0" encoding="UTF-8" standalone="no"?>
<svg
   width="1821"
   height="2103"
   viewBox="0 0 1821 2103"
   fill="none"
   version="1.1"
   id="svg143"
   xmlns="http://www.w3.org/2000/svg"
   xmlns:svg="http://www.w3.org/2000/svg">
  <defs
     id="defs143" />
  <mask
     id="mask0_5461_13884"
     maskUnits="userSpaceOnUse"
     x="1004"
     y="1520"
     width="206"
     height="441">
    <path
       d="m 1005.45,1848.97 17.34,-225.65 13.39,-73.59 1.37,-9.31 c 0.81,-5.52 3.6,-10.55 7.85,-14.16 4.25,-3.61 9.66,-5.55 15.24,-5.46 l 65.59,0.82 c 3.03,0.03 6.02,0.66 8.8,1.85 2.79,1.18 5.31,2.91 7.42,5.08 2.12,2.17 3.78,4.74 4.9,7.55 1.12,2.82 1.67,5.82 1.61,8.85 l -0.93,74.14 57.37,198.88 c 3.83,13.27 4.89,27.18 3.1,40.88 -1.79,13.69 -6.39,26.87 -13.51,38.71 -17.21,28.43 -45.28,60.58 -85.86,63.1 -73.79,4.5 -92.46,-62.95 -103.85,-104.29 -0.78,-2.42 -0.72,-5.02 0.17,-7.4 z"
       fill="#ffffff"
       id="path27" />
  </mask>
  <mask
     id="mask1_5461_13884"
     maskUnits="userSpaceOnUse"
     x="1183"
     y="962"
     width="616"
     height="456">
    <path
       d="m 1188.09,1392.33 c -2.08,2.16 -3.47,4.9 -3.99,7.86 -0.52,2.96 -0.14,6 1.08,8.75 1.22,2.74 3.23,5.06 5.78,6.65 2.54,1.6 5.51,2.4 8.51,2.3 37.04,-1.18 118.23,-41.26 155.1,-55.45 90.4,-35 179.61,-75.44 261.39,-127.78 49.46,-31.65 97.53,-68.14 135.13,-113.69 20.57,-24.95 39.52,-54.13 45.89,-86.36 11.47,-57.938 -46.35,-80.58 -94.03,-69.68 -144.45,33.026 -213.56,121.93 -213.56,121.93 z"
       fill="#ffffff"
       id="path42" />
  </mask>
  <mask
     id="mask2_5461_13884"
     maskUnits="userSpaceOnUse"
     x="1505"
     y="649"
     width="191"
     height="401">
    <path
       d="m 1557.43,678.549 c 0,0 -4.5,-47.405 36.04,-20.06 40.55,27.346 105.39,153.27 101.36,185.492 -4.04,32.222 -189.05,205.779 -189.05,205.779 z"
       fill="#ffffff"
       id="path53" />
  </mask>
  <mask
     id="mask3_5461_13884"
     maskUnits="userSpaceOnUse"
     x="800"
     y="1520"
     width="205"
     height="441">
    <path
       d="m 1004.26,1848.97 -17.362,-225.65 -13.386,-73.59 -1.377,-9.31 c -0.808,-5.52 -3.596,-10.55 -7.843,-14.16 -4.248,-3.61 -9.665,-5.55 -15.239,-5.46 l -65.572,0.82 c -3.026,0.04 -6.015,0.67 -8.796,1.87 -2.782,1.19 -5.301,2.92 -7.414,5.08 -2.113,2.17 -3.779,4.73 -4.902,7.54 -1.123,2.81 -1.682,5.82 -1.644,8.84 l 0.937,74.14 -57.369,198.88 c -3.832,13.27 -4.886,27.18 -3.096,40.88 1.789,13.69 6.385,26.87 13.499,38.71 17.211,28.43 45.302,60.58 85.881,63.1 73.776,4.5 92.44,-62.95 103.853,-104.29 0.76,-2.42 0.7,-5.02 -0.17,-7.4 z"
       fill="#ffffff"
       id="path61" />
  </mask>
  <mask
     id="mask4_5461_13884"
     maskUnits="userSpaceOnUse"
     x="4"
     y="579"
     width="525"
     height="822">
    <path
       d="m 247.665,732.299 c 0,0 -258.4647,-238.462 -242.30588,-120.091 L 205.958,1130.21 c 36.161,93.36 72.418,189.54 149.158,244.92 31.209,22.51 70.755,30.98 107.968,21.5 28.053,-7.14 55.82,-24.36 61.767,-63.87 12.831,-85.04 -8.433,-200.52 -38.246,-244.99 z"
       fill="#ffffff"
       id="path83" />
  </mask>
  <mask
     id="mask5_5461_13884"
     maskUnits="userSpaceOnUse"
     x="427"
     y="634"
     width="1144"
     height="764">
    <path
       d="m 1561.1,670.494 c -11.07,-21.379 -30.6,-31.591 -54.1,-34.976 -4.9,-0.883 -9.87,-1.331 -14.86,-1.338 H 506.359 c -4.982,0.007 -9.955,0.455 -14.858,1.338 -23.445,3.385 -43.027,13.597 -54.099,34.976 -9.255,13.386 -9.561,57.77 -9.561,57.77 4.608,419.456 294.874,640.616 294.874,640.616 0,15.81 123.821,28.68 276.593,28.68 152.772,0 248.732,-6.78 276.572,-28.68 0,0 290.19,-221.16 294.78,-640.616 0,0 -0.36,-44.308 -9.56,-57.77 z"
       fill="#ffffff"
       id="path96" />
  </mask>
  <path
     d="m 641.95877,1536.2947 511.48213,26.3574 -0.4634,9.1851 c -0.9927,19.4912 -9.708,37.7842 -24.2039,50.8548 -14.4959,13.0705 -33.581,19.8486 -53.0634,18.8446 l -364.52638,-18.7851 c -19.48897,-1.0038 -37.78202,-9.708 -50.85255,-24.1995 -13.07057,-14.4915 -19.85076,-33.5833 -18.84466,-53.0721 z"
     fill="#ea580c"
     id="path123"
     style="stroke-width:2.20638" />
  <path
     d="m 1079.3508,1650.029 h -4.2142 l -364.33232,-18.7763 c -21.71732,-1.123 -42.09981,-10.8266 -56.6663,-26.9751 -14.56651,-16.1485 -22.12335,-37.4201 -21.00913,-59.1375 l 0.88697,-17.6378 528.16228,27.2156 -0.9266,17.6357 c -1.1253,20.9627 -10.2597,40.6943 -25.4836,55.1417 -15.2241,14.4473 -35.4125,22.5095 -56.4171,22.5337 z M 649.96351,1545.1401 v 0.759 c -0.43686,8.5431 0.81194,17.0905 3.67803,25.1504 2.86387,8.0621 7.28987,15.48 13.02203,21.83 5.72996,6.3521 12.65802,11.5106 20.38474,15.1843 7.72447,3.6735 16.09987,5.7917 24.64297,6.2285 l 364.28372,18.7763 c 8.5608,0.4545 17.0994,-0.7811 25.1748,-3.6383 8.0753,-2.8551 15.4888,-7.2745 21.8432,-13.0045 6.3542,-5.7299 11.5172,-12.6579 15.2019,-20.3869 3.6846,-7.731 5.7807,-16.1087 6.2219,-24.6562 v -0.759 z"
     fill="#000000"
     id="path124"
     style="stroke-width:2.20638" />
  <mask
     id="mask6_5461_13884"
     maskUnits="userSpaceOnUse"
     x="592"
     y="243"
     width="811"
     height="468">
    <path
       d="m 1401.88,371.47 c 0.94,-14.434 -2.23,-28.838 -9.15,-41.541 -6.92,-12.703 -17.3,-23.184 -29.93,-30.227 -19.91,-11.341 -41.65,-19.107 -64.24,-22.947 -8.95,-1.568 -29.62,-3.213 -29.62,-3.213 L 765.589,245.604 c 0,0 -22.565,-1.473 -27.308,-1.913 -39.469,-3.404 -75.267,16.541 -100.643,43.524 -15.681,16.675 -29.889,41.248 -31.151,64.348 l -4.074,74.293 c -1.109,15.393 -1.912,30.94 -2.505,45.703 l -7.4,135.18 c -2.065,37.863 28.875,70.142 69.11,72.093 l 648.572,31.438 c 40.16,1.912 74.58,-27.154 76.6,-65.018 l 9.18,-167.765 5.11,-93.243 c 0.11,-2.62 0.46,-7.286 0.8,-12.774 z"
       fill="#ffffff"
       id="path125" />
  </mask>
  <g
     mask="url(#mask6_5461_13884)"
     id="g133"
     style="display:inline"
     transform="matrix(2.2063765,0,0,2.2063765,-1292.7466,46.955236)">
    <path
       d="m 1401.88,371.47 c 0.94,-14.434 -2.23,-28.838 -9.15,-41.541 -6.92,-12.703 -17.3,-23.184 -29.93,-30.227 -19.91,-11.341 -41.65,-19.107 -64.24,-22.947 -8.95,-1.568 -29.62,-3.213 -29.62,-3.213 L 765.589,245.604 c 0,0 -22.565,-1.473 -27.308,-1.913 -39.469,-3.404 -75.267,16.541 -100.643,43.524 -15.681,16.675 -29.889,41.248 -31.151,64.348 l -4.074,74.293 c -1.109,15.393 -1.912,30.94 -2.505,45.703 l -7.4,135.18 c -2.065,37.863 28.875,70.142 69.11,72.093 l 648.572,31.438 c 40.16,1.912 74.58,-27.154 76.6,-65.018 l 9.18,-167.765 5.11,-93.243 c 0.11,-2.62 0.46,-7.286 0.8,-12.774 z"
       fill="#fefcf9"
       id="path126" />
    <path
       d="M 1143.48,314.981 919.738,303.507 906.792,250.422 1157,263.578 Z m -217.68,-18.894 211.86,10.919 9.56,-36.333 -230.561,-12.105 z"
       fill="#000000"
       id="path127" />
    <path
       d="m 672.595,354.852 c -4.035,-6.502 -11.206,-10.46 -21.341,-11.703 -25.625,-3.175 -100.816,22.794 -143.422,38.552 l -2.562,0.937 v 2.734 c 0.252,21.013 2.642,41.946 7.132,62.475 l 0.937,4.092 138.354,-46.01 c 10.346,-3.461 17.727,-10.097 20.787,-18.721 3.461,-9.37 6.138,-22.584 0.115,-32.356 z"
       fill="#000000"
       id="path128" />
    <path
       d="m 652.86,369.064 c -22.565,-2.792 -89.208,18.932 -142.465,38.685 0.996,13.205 2.952,26.32 5.851,39.241 l 134.377,-44.691 c 9.178,-3.059 15.757,-8.968 18.377,-16.369 0.849,-2.393 1.564,-4.832 2.141,-7.305 -3.078,-4.761 -8.815,-8.375 -18.281,-9.561 z"
       fill="#ea580c"
       id="path129" />
    <path
       d="m 513.473,451.94 -0.937,-4.093 c -2.957,-13.1 -4.945,-26.401 -5.948,-39.794 l -0.248,-2.888 2.734,-1.013 c 42.816,-15.891 118.562,-42.071 144.263,-38.877 9.849,1.205 16.905,4.991 21.035,11.244 l 0.899,1.377 -0.363,1.587 c -0.612,2.589 -1.365,5.143 -2.257,7.649 -3.021,8.491 -10.594,15.299 -20.786,18.722 z m 0.975,-41.631 c 0.921,10.65 2.466,21.237 4.628,31.706 l 130.322,-43.351 c 8.07,-2.678 13.749,-7.65 16.006,-14.018 0.612,-1.701 1.147,-3.442 1.587,-5.201 -2.964,-3.538 -7.859,-5.737 -14.591,-6.578 -17.44,-2.199 -67.618,11.474 -137.952,37.442 z"
       fill="#000000"
       id="path130" />
    <path
       d="m 661.541,506.438 c -4.015,-6.521 -11.206,-10.46 -21.341,-11.703 -25.643,-3.174 -100.815,22.775 -143.421,38.533 l -2.582,0.956 v 2.734 c 0.271,21.012 2.661,41.943 7.133,62.475 l 0.956,4.092 138.335,-46.029 c 10.345,-3.442 17.727,-10.078 20.787,-18.702 3.48,-9.313 6.176,-22.546 0.133,-32.356 z"
       fill="#000000"
       id="path131" />
    <path
       d="m 641.806,520.705 c -22.565,-2.792 -89.208,18.912 -142.465,38.685 0.995,13.206 2.957,26.322 5.871,39.24 l 134.357,-44.69 c 9.179,-3.059 15.757,-8.968 18.396,-16.369 0.842,-2.394 1.551,-4.832 2.123,-7.305 -3.117,-4.704 -8.759,-8.376 -18.282,-9.561 z"
       fill="#ea580c"
       id="path132" />
    <path
       d="m 502.44,603.58 -0.957,-4.092 c -2.955,-13.101 -4.943,-26.402 -5.947,-39.795 l -0.229,-2.887 2.715,-1.014 c 42.816,-15.891 118.562,-42.07 144.263,-38.876 9.848,1.204 16.905,4.991 21.035,11.244 l 0.899,1.377 -0.363,1.587 c -0.606,2.591 -1.359,5.144 -2.257,7.649 -3.06,8.624 -10.441,15.298 -20.786,18.702 z m 0.975,-41.687 c 0.908,10.65 2.447,21.237 4.608,31.705 l 130.342,-43.351 c 8.05,-2.677 13.73,-7.649 15.987,-14.017 0.612,-1.702 1.147,-3.442 1.606,-5.202 -2.964,-3.538 -7.879,-5.737 -14.61,-6.578 -17.402,-2.104 -67.599,11.531 -137.933,37.443 z"
       fill="#000000"
       id="path133" />
  </g>
  <path
     d="m 1606.2996,1622.82 c -2.9123,0 -5.8248,0 -8.7812,0 L 166.52656,1553.2462 c -22.76762,-0.9045 -45.12703,-6.3256 -65.77871,-15.9543 -20.651688,-9.6263 -39.180842,-23.2639 -54.512944,-40.1207 -13.785441,-15.0519 -24.435615,-32.6963 -31.332749,-51.9072 -6.8949351,-19.2108 -9.8978044,-39.6022 -8.8343337,-59.9848 L 22.397211,1087.0213 c 1.434143,-35.7367 3.289703,-69.7855 5.568895,-101.00789 L 36.910757,822.2649 c 3.080108,-56.19865 38.691021,-112.94881 71.051953,-147.29327 65.44111,-69.61559 148.89731,-105.48025 228.89391,-98.6868 10.25082,0.88475 59.57436,4.21859 60.08183,4.21859 l 1110.58165,61.60203 c 2.0741,0 46.4222,3.75304 66.368,7.17073 50.7466,8.63133 99.5957,26.0948 144.2969,51.60273 29.2344,16.34704 53.2619,40.63039 69.2803,70.04361 16.0403,29.41546 23.4096,62.76265 21.3135,96.19362 -0.3529,5.99027 -0.7281,11.51722 -1.059,16.28522 -0.3309,4.76801 -0.5957,8.98667 -0.7501,11.9409 l -31.5292,575.88204 c -4.7217,85.1859 -79.4957,151.5957 -169.1409,151.5957 z M 317.32135,592.31855 c -69.28021,0 -140.2064,33.75316 -197.12209,94.21449 -30.293545,32.19325 -63.669398,85.01616 -66.453846,136.66075 l -8.98657,163.9581 c -2.279192,31.18051 -4.218604,65.01971 -5.526976,100.71451 l -16.329401,298.3815 c -0.922261,18.1629 1.787176,36.3279 7.965032,53.4317 6.180055,17.1039 15.707187,32.8067 28.025393,46.1862 13.836187,15.2239 30.564926,27.5421 49.211008,36.2353 18.6461,8.6931 38.83444,13.5868 59.39125,14.3944 l 1430.99395,69.364 c 83.9527,4.2187 155.9026,-56.7061 160.3374,-135.4804 l 31.2643,-576.04951 c 0,-2.99626 0.4192,-7.17289 0.7503,-12.15049 0.3309,-4.97984 0.6838,-10.25307 1.059,-16.15955 1.9196,-30.24726 -4.7658,-60.41942 -19.2617,-87.03939 -14.4738,-26.61983 -36.2066,-48.60421 -62.6391,-63.42003 -43.1345,-24.60109 -90.2627,-41.42472 -139.2222,-49.70084 -19.1735,-3.33382 -64.1836,-6.96332 -64.6469,-7.00524 L 395.88159,597.29614 c -2.10929,0 -50.08032,-3.2919 -60.50325,-4.21859 -5.99031,-0.46553 -12.02476,-0.759 -18.05699,-0.759 z"
     fill="#000000"
     id="path134"
     style="stroke-width:2.20638" />
  <path
     d="M 1617.2654,756.19721 393.9113,693.15438 c -74.51374,-3.84131 -138.03312,53.45161 -141.87221,127.96769 l -25.31155,491.13933 c -3.8391,74.5159 53.45388,138.0354 127.96763,141.8744 l 1223.34083,63.0429 c 74.5093,3.8391 138.0309,-53.4539 141.87,-127.9676 l 25.3071,-491.14173 c 3.8391,-74.5137 -53.4383,-138.03304 -127.9477,-141.87216 z"
     fill="#ea580c"
     id="path135"
     style="stroke-width:2.20638" />
  <path
     d="m 1585.0744,1525.7328 c -2.4492,0 -4.9423,0 -7.4798,0 L 354.23845,1462.5289 c -38.00705,-2.0077 -73.66429,-19.0057 -99.15677,-47.265 -25.49247,-28.2593 -38.73735,-65.4764 -36.82883,-103.4878 l 25.31596,-491.15938 c 2.02766,-37.99373 19.03441,-73.63553 47.28926,-99.11702 28.25707,-25.47923 65.46099,-38.72191 103.46362,-36.82663 l 1223.31881,63.03624 c 38.0378,1.98569 73.7149,18.98586 99.2207,47.26928 25.5057,28.28147 38.7439,65.53166 36.8024,103.56742 l -25.3072,491.15919 c -1.9857,36.69 -17.9158,71.2329 -44.5688,96.5313 -26.653,25.2982 -61.9771,39.4323 -98.7132,39.4963 z M 386.81119,701.34003 c -32.47125,0.0199 -63.6959,12.49251 -87.24454,34.84752 -23.54867,22.35499 -37.62534,52.89128 -39.33308,85.31617 L 234.9176,1312.6629 c -0.86269,16.6097 1.55329,33.2281 7.11557,48.9022 5.56227,15.6764 14.15831,30.1016 25.29831,42.453 11.1422,12.3512 24.60551,22.3859 39.62653,29.53 15.021,7.1421 31.30186,11.2569 47.91367,12.1043 l 1223.36282,63.0361 c 2.1844,0 4.2142,0 6.5751,0 32.4778,-0.022 63.6981,-12.4925 87.2401,-34.8475 23.564,-22.355 37.6408,-52.8913 39.3397,-85.3161 l 25.3292,-491.11738 c 1.6768,-33.53702 -9.9948,-66.37452 -32.4778,-91.3131 -22.5052,-24.93873 -53.946,-39.94201 -87.4828,-41.72048 L 393.181,701.34003 c -1.8975,0.0838 -4.09284,0 -6.28598,0 z"
     fill="#000000"
     id="path136"
     style="stroke-width:2.20638" />
  <path
     d="m 1588.1191,892.55125 c -12.5984,-14.03474 -27.8445,-25.43511 -44.8777,-33.53913 -17.0331,-8.10401 -35.5006,-12.75069 -54.321,-13.67299 L 389.00653,788.84276 c -38.00704,-1.91956 -75.2242,11.31645 -103.48568,36.80018 -28.26148,25.48583 -45.2594,61.14081 -47.2672,99.1435 l -19.95668,387.15506 c -1.86218,37.9761 11.39593,75.1425 36.87518,103.3643 25.47702,28.2218 61.09897,45.2021 99.0663,47.221 l 1099.95365,56.664 c 2.5374,0 5.0525,0 7.5458,0 36.7582,-0.028 72.1265,-14.1693 98.7574,-39.5051 26.631,-25.3381 42.5389,-59.934 44.4144,-96.6504 l 19.9455,-387.15509 c 1.0151,-18.79827 -1.7208,-37.6076 -8.0311,-55.34248 -6.3103,-17.73712 -16.0625,-34.04659 -28.705,-47.98648 z"
     fill="#000000"
     id="path137"
     style="stroke-width:2.20638" />
  <path
     d="m 815.73742,1124.02 -54.25919,0.2957 c -5.57557,0.099 -10.89726,2.352 -14.85113,6.2859 3.84347,-4.053 5.97486,-9.4344 5.94838,-15.0209 l -0.29562,-54.2593 c -0.0336,-5.7961 -2.35864,-11.3452 -6.46914,-15.4313 -4.1105,-4.0885 -9.67276,-6.3809 -15.46898,-6.3809 l -54.2592,0.2956 c -2.89917,0.015 -5.76741,0.6045 -8.43934,1.7299 1.1076,-2.6742 1.65258,-5.5469 1.60403,-8.4395 l -0.46553,-54.38497 c -0.0441,-5.79399 -2.37407,-11.33635 -6.48235,-15.42037 -4.10827,-4.08612 -9.66393,-6.38298 -15.45787,-6.39405 l -54.21508,0.29562 c -2.87932,0.014 -5.72996,0.58913 -8.38423,1.70338 -2.65648,1.112 -5.06584,2.73804 -7.09129,4.78566 -2.02545,2.04523 -3.62949,4.47 -4.71724,7.13534 -1.08773,2.66757 -1.63934,5.52036 -1.62168,8.39963 l 0.29566,54.21726 c 0.007,2.8992 0.5935,5.7698 1.72979,8.4395 -2.67855,-1.101 -5.54242,-1.6747 -8.43938,-1.6879 l -54.2173,0.2957 c -2.88154,0.014 -5.73437,0.5891 -8.39306,1.7054 -2.65648,1.1165 -5.06805,2.7471 -7.0957,4.7968 -2.02545,2.0497 -3.62729,4.481 -4.71282,7.1509 -1.08554,2.6719 -1.63273,5.5291 -1.61066,8.4129 l 0.29566,54.2173 c 0.0419,5.6042 2.23065,10.9811 6.11828,15.0188 -4.02443,-3.8413 -9.37269,-5.9881 -14.93717,-5.9904 l -54.2173,0.2958 c -2.87931,0 -5.72774,0.589 -8.38202,1.7032 -2.65648,1.112 -5.06584,2.7382 -7.09129,4.7834 -2.02545,2.0475 -3.6295,4.4724 -4.71723,7.1376 -1.08775,2.6654 -1.63934,5.5204 -1.62169,8.3998 l 0.29565,54.2592 c 0.0331,5.7895 2.352,11.332 6.45365,15.4181 4.10386,4.084 9.6529,6.3831 15.44243,6.3941 l 54.21729,-0.2934 c 2.88374,-0.022 5.73659,-0.5914 8.39307,-1.7077 2.65867,-1.1165 5.07025,-2.747 7.0957,-4.7968 2.02766,-2.0497 3.62948,-4.481 4.71502,-7.1508 1.08554,-2.6697 1.63273,-5.5292 1.61066,-8.4129 l -0.3795,-54.3431 c -0.053,-5.6108 -2.25932,-10.9877 -6.1602,-15.021 4.03767,3.8458 9.40137,5.9904 14.97688,5.9926 l 54.25921,-0.2957 c 2.88374,0 5.73659,-0.5847 8.39306,-1.6989 2.65868,-1.1164 5.06804,-2.7469 7.09129,-4.7989 4.07077,-4.1413 6.34555,-9.7191 6.3301,-15.5263 l -0.25373,-54.1335 c -0.0199,-2.8947 -0.59352,-5.7587 -1.68789,-8.4372 2.60795,1.0856 5.40342,1.646 8.22759,1.6439 l 54.21729,-0.2517 c 2.89918,-0.027 5.76305,-0.6133 8.43938,-1.7297 -1.08995,2.6785 -1.64816,5.5446 -1.64595,8.4372 l 0.29565,54.2173 c 0.0441,5.794 2.37407,11.3341 6.48234,15.4204 4.10827,4.084 9.66393,6.383 15.45782,6.394 l 54.2152,-0.2956 c 5.58425,-0.046 10.9414,-2.2197 14.97904,-6.0764 -3.85453,4.0466 -5.98817,9.4323 -5.94838,15.021 l 0.29562,54.2174 c 0.0336,5.796 2.35865,11.3451 6.46915,15.4314 4.1105,4.0861 9.67275,6.3807 15.46884,6.3807 l 54.26144,-0.2537 c 5.81164,-0.055 11.36507,-2.4049 15.45119,-6.5396 4.08626,-4.1327 6.37205,-9.7147 6.36098,-15.5263 L 837.34,1145.8323 c -0.0336,-5.7388 -2.31227,-11.2372 -6.34991,-15.3145 -4.03765,-4.0774 -9.51388,-6.4096 -15.25267,-6.4978 z"
     fill="#ea580c"
     id="path138"
     style="stroke-width:2.20638" />
  <path
     d="m 1489.2073,1180.265 -54.0122,-3.25 c -5.4939,-0.2956 -10.8995,1.4628 -15.1798,4.9378 4.0157,-3.7728 6.4205,-8.9358 6.7515,-14.4297 l 3.4199,-54.1333 c 0.3531,-5.8139 -1.5886,-11.5351 -5.4497,-15.9059 -1.8975,-2.1622 -4.2142,-3.9251 -6.7956,-5.1849 -2.5816,-1.26 -5.3837,-1.9924 -8.252,-2.1579 l -54.1444,-3.4177 c -2.8682,-0.1788 -5.7366,0.2096 -8.4284,1.1407 1.2577,-2.6432 1.9859,-5.5115 2.1402,-8.4394 l 3.3758,-54.0892 c 0.353,-5.8051 -1.5886,-11.5174 -5.4497,-15.8816 -3.8391,-4.3664 -9.2447,-7.0295 -15.0476,-7.409 l -54.1444,-3.37579 c -5.8028,-0.3574 -11.4952,1.59969 -15.8638,5.44319 -4.3466,3.8457 -7.0164,9.2624 -7.3693,15.0629 l -3.3758,54.1312 c -0.1985,2.8617 0.1765,5.7322 1.1252,8.4394 -2.6256,-1.2908 -5.4938,-2.0364 -8.4284,-2.1932 l -54.1445,-3.4175 c -5.8026,-0.3112 -11.4952,1.6966 -15.8196,5.5799 -4.3246,3.8853 -6.928,9.3285 -7.2591,15.1357 l -3.4198,54.1335 c -0.331,5.5645 1.4783,11.0473 5.0746,15.3144 -3.817,-4.0707 -9.0461,-6.5309 -14.6061,-6.8772 l -54.0783,-3.5015 c -2.8903,-0.1854 -5.7807,0.2008 -8.4946,1.134 -2.7358,0.9334 -5.2511,2.3983 -7.4135,4.309 -2.1622,1.8976 -3.9272,4.2076 -5.1849,6.7935 -1.2576,2.5859 -2.0079,5.3968 -2.1622,8.2695 l -3.42,54.1313 c -0.3529,5.8005 1.6108,11.5063 5.4498,15.866 3.8391,4.3576 9.2668,7.014 15.0475,7.3825 l 54.1445,3.4177 h 1.3899 c 5.5822,-0.022 10.9217,-2.1401 14.9815,-5.955 4.0596,-3.817 6.5308,-9.0329 6.8838,-14.5929 l 3.4199,-54.1335 c 0.331,-5.5579 -1.4783,-11.0342 -5.0305,-15.3145 3.795,4.0863 9.0019,6.564 14.5621,6.9192 l 54.1223,3.3758 h 1.3901 c 5.5822,0 10.9436,-2.1402 15.0033,-5.955 4.0598,-3.8171 6.5088,-9.0329 6.8618,-14.593 l 3.3758,-54.1336 c 0.1766,-2.8593 -0.2206,-5.7254 -1.1473,-8.4372 2.6477,1.3019 5.5159,2.0477 8.4504,2.1932 l 54.1224,3.4177 h 1.39 c 2.427,-0.022 4.8099,-0.4346 7.0825,-1.2222 -1.3017,2.6277 -2.0519,5.5025 -2.1843,8.4371 l -3.5964,53.9636 c -0.353,5.8006 1.6107,11.5062 5.4498,15.8661 3.8391,4.3575 9.2667,7.014 15.0695,7.3824 l 54.1225,3.4177 h 1.3237 c 5.1629,-0.027 10.1715,-1.8974 14.0767,-5.2732 -4.17,3.8281 -6.7074,9.1167 -7.0825,14.7673 l -3.3758,54.1312 c -0.3529,5.8006 1.6108,11.5063 5.4498,15.866 3.8391,4.3577 9.2669,7.0142 15.0475,7.3826 l 54.1445,3.3757 h 1.3901 c 5.3393,0.024 10.5023,-1.9282 14.4738,-5.4849 2.1622,-1.8998 3.9273,-4.2076 5.185,-6.7935 1.2797,-2.5859 2.0298,-5.3968 2.2063,-8.2695 l 3.3978,-54.1335 c 0.3309,-5.7895 -1.6547,-11.4731 -5.4939,-15.8131 -3.8391,-4.3377 -9.2667,-6.9809 -15.0474,-7.3494 z"
     fill="#ea580c"
     id="path139"
     style="stroke-width:2.20638" />
</svg>
